<?xml version="1.0" standalone="no"?>
<!DOCTYPE svg PUBLIC "-//W3C//DTD SVG 20010904//EN"
 "http://www.w3.org/TR/2001/REC-SVG-20010904/DTD/svg10.dtd">
<svg version="1.0" xmlns="http://www.w3.org/2000/svg"
 width="1440.000000pt" height="1440.000000pt" viewBox="0 0 1440.000000 1440.000000"
 preserveAspectRatio="xMidYMid meet">
<metadata>
Created by potrace 1.14, written by Peter Selinger 2001-2017
</metadata>
<g transform="translate(0.000000,1440.000000) scale(0.100000,-0.100000)"
fill="#000000" stroke="none">
<path d="M0 7200 l0 -7200 2755 0 c2341 0 2755 2 2755 14 0 19 -21 87 -102
336 -89 273 -84 259 -162 428 -36 78 -66 147 -66 152 0 22 47 7 178 -56 156
-75 356 -157 434 -178 29 -8 69 -20 88 -25 61 -19 201 -40 345 -51 196 -16
218 -23 465 -144 143 -72 190 -86 208 -64 15 19 -11 58 -39 58 -10 0 -19 5
-19 11 0 5 -4 8 -9 5 -10 -7 -71 16 -71 26 0 4 -6 8 -14 8 -8 0 -21 7 -30 15
-8 8 -24 16 -36 18 -12 2 -25 8 -28 13 -4 5 -13 9 -19 10 -29 2 -33 5 -33 22
0 13 -2 14 -9 3 -7 -11 -14 -10 -40 5 -17 10 -31 22 -31 27 0 4 -5 5 -10 2 -6
-4 -16 -2 -23 3 -14 11 -109 35 -152 38 -16 1 -75 5 -130 8 -55 4 -112 9 -127
11 -16 3 -43 7 -60 10 -56 10 -173 49 -180 61 -4 7 -20 15 -35 19 -16 3 -42
21 -59 39 -17 18 -36 30 -42 28 -7 -2 -12 3 -12 12 0 9 -6 13 -15 10 -9 -4
-19 3 -26 20 -13 28 -24 33 -33 14 -3 -7 -5 1 -3 19 3 28 -1 34 -25 42 -16 6
-28 17 -28 27 0 13 -3 14 -15 4 -13 -11 -15 -8 -15 16 0 22 -3 26 -10 14 -8
-12 -10 -11 -10 8 0 24 -15 30 -23 10 -3 -7 -6 5 -7 27 -1 37 -2 39 -15 21
-15 -19 -15 -19 -15 1 0 12 6 24 13 26 9 4 9 6 0 6 -7 1 -13 10 -13 21 0 11
-3 19 -7 19 -27 -4 -43 3 -43 21 0 11 4 20 9 20 6 0 6 12 1 30 -5 19 -5 30 1
30 6 0 7 5 4 11 -4 5 1 19 10 29 12 13 14 23 7 36 -6 11 -5 33 3 65 7 26 12
49 10 51 -8 10 -14 59 -7 54 5 -3 6 17 1 47 -4 29 -10 167 -14 307 -3 140 -11
300 -17 355 -6 55 -12 134 -13 175 -10 251 -17 370 -25 411 -14 73 -25 363
-13 356 12 -7 17 98 6 116 -8 14 -9 15 -18 184 -4 73 -11 130 -16 127 -5 -3
-9 0 -9 5 0 6 5 11 10 11 7 0 8 13 4 35 -9 48 8 46 81 -13 33 -27 105 -79 160
-117 55 -38 134 -94 175 -125 84 -63 208 -149 279 -195 158 -100 351 -227 376
-247 91 -73 473 -281 570 -311 102 -31 186 -40 250 -28 141 28 234 54 290 83
79 40 248 152 235 156 -6 2 -37 -14 -69 -36 -118 -81 -293 -156 -404 -173 -40
-6 -103 -8 -141 -5 -95 9 -289 88 -441 180 -66 40 -142 85 -170 101 -27 15
-77 47 -110 72 -33 24 -94 66 -135 91 -41 26 -137 90 -213 142 -76 52 -171
115 -211 140 -40 25 -90 59 -112 76 -21 17 -46 35 -56 40 -36 20 -319 246
-467 374 -356 307 -498 456 -646 680 -122 183 -277 476 -341 645 -19 50 -39
98 -44 107 -6 10 -10 25 -10 33 0 9 -7 32 -16 53 -9 20 -18 47 -20 59 -1 13
-11 35 -22 50 -11 16 -23 38 -26 51 -4 12 -12 22 -17 22 -5 0 -9 10 -9 23 0
12 -10 40 -21 62 -24 45 -52 162 -42 178 4 6 1 7 -7 2 -10 -6 -12 -4 -7 8 4
10 1 17 -6 17 -9 0 -9 2 0 8 9 6 7 22 -9 67 -12 33 -24 62 -28 65 -7 7 -13 29
-18 73 -2 20 -8 40 -13 43 -5 3 -9 18 -9 34 0 15 -6 31 -12 34 -10 5 -10 7 0
12 6 3 12 18 13 32 0 15 3 22 5 16 3 -7 13 -10 23 -7 21 5 51 -21 52 -45 0
-12 3 -10 10 6 10 25 29 21 29 -6 0 -15 2 -15 10 -2 7 11 12 12 18 3 4 -6 13
-13 21 -15 8 -2 25 -13 39 -26 14 -12 28 -18 31 -13 4 5 22 -3 40 -20 33 -28
58 -39 46 -19 -7 11 23 -4 84 -44 38 -24 45 -26 58 -13 13 13 13 18 -3 43 -10
16 -24 35 -31 42 -7 7 -13 28 -14 45 0 18 -3 26 -6 20 -6 -17 -20 -17 -20 0 0
13 -53 138 -63 147 -12 11 -40 82 -35 89 2 5 -4 27 -15 49 -11 23 -21 60 -21
84 -1 40 -2 41 -9 13 -6 -23 -8 -14 -9 38 -1 52 2 66 12 61 8 -5 8 -2 -2 9 -7
9 -20 17 -27 17 -8 0 -14 9 -14 19 0 24 16 36 23 19 3 -7 6 1 7 17 l1 30 24
-30 25 -30 0 28 c0 15 5 27 10 27 6 0 10 -9 10 -20 0 -11 4 -20 9 -20 5 0 14
-13 21 -30 14 -35 55 -81 64 -73 3 4 6 -3 6 -14 0 -14 11 -26 30 -35 18 -8 30
-20 30 -32 0 -11 3 -16 7 -13 3 4 16 -7 28 -23 12 -16 24 -27 28 -24 3 3 8 -4
12 -15 3 -12 11 -19 16 -16 5 4 19 -4 32 -17 33 -32 104 -88 112 -88 4 0 20
-9 36 -21 40 -29 59 -19 59 30 0 22 -4 42 -8 45 -5 3 -14 30 -21 60 -7 31 -17
58 -22 61 -5 4 -9 15 -9 26 0 13 -4 18 -12 13 -8 -5 -9 -2 -5 10 4 10 4 23 0
29 -16 25 -33 83 -33 114 0 25 -4 31 -15 27 -12 -5 -15 3 -15 35 0 23 -3 41
-8 41 -4 0 -8 34 -10 76 -2 42 1 74 5 71 4 -3 9 25 10 61 1 36 5 72 7 79 6 14
66 15 66 1 0 -13 28 -9 44 7 11 12 28 14 70 9 39 -5 56 -3 56 5 0 6 11 11 25
11 14 0 25 -6 25 -12 0 -10 2 -10 9 0 6 10 36 13 120 11 105 -2 149 -13 102
-26 -31 -8 -25 -30 9 -35 17 -3 30 -1 30 4 0 5 6 6 12 2 7 -5 31 -9 53 -11 22
-2 52 -5 68 -8 15 -2 27 0 27 5 0 5 7 7 15 4 9 -4 15 -1 15 7 0 8 6 5 15 -7 8
-10 15 -14 15 -9 0 6 10 11 22 12 11 1 24 7 28 14 4 6 13 8 19 5 6 -4 11 -1
11 6 0 9 3 9 10 -2 8 -13 10 -13 10 2 0 10 11 19 30 23 17 4 30 11 30 16 0 5
6 9 13 9 7 0 20 17 29 38 15 33 15 38 1 49 -14 11 -14 15 3 39 59 83 75 116
90 182 17 77 30 97 77 117 24 10 37 10 67 -2 50 -20 158 -140 167 -185 3 -18
10 -41 15 -50 7 -15 4 -18 -20 -18 -16 0 -48 -6 -70 -14 -22 -8 -75 -20 -118
-26 -97 -15 -124 -25 -124 -46 0 -15 8 -16 63 -8 34 5 95 9 135 9 39 0 72 3
72 8 0 4 7 7 16 7 14 0 14 -3 4 -15 -11 -13 -8 -15 13 -15 14 0 27 6 30 13 3
9 10 9 31 -3 25 -13 26 -15 9 -22 -11 -5 -6 -6 14 -2 29 5 35 1 60 -35 15 -22
35 -43 44 -46 9 -3 28 -22 42 -43 13 -21 52 -65 86 -98 33 -34 61 -66 61 -73
0 -6 7 -11 15 -11 9 0 18 -7 21 -15 4 -8 11 -15 18 -15 6 0 23 -10 37 -22 31
-28 59 -47 81 -54 9 -3 18 -15 21 -25 3 -11 9 -19 14 -18 20 4 33 -2 33 -15 0
-18 59 -68 74 -63 14 5 20 33 10 55 -4 9 -8 32 -10 51 -2 19 -9 48 -15 64 -10
23 -10 30 1 37 10 6 9 9 -1 12 -11 4 -14 45 -15 204 -1 109 0 180 3 157 3 -28
9 -43 18 -43 11 0 12 7 5 31 -11 38 -8 45 24 51 18 4 26 0 29 -14 3 -10 12
-18 21 -18 9 0 16 -7 16 -16 0 -12 7 -15 24 -12 18 4 31 -2 45 -19 12 -13 21
-28 21 -33 0 -6 7 -10 15 -10 8 0 15 -4 15 -10 0 -5 9 -10 20 -10 11 0 20 -7
20 -16 0 -8 4 -12 10 -9 6 3 10 -1 10 -10 0 -10 7 -15 17 -13 10 2 18 -3 18
-12 0 -8 5 -15 12 -15 6 0 29 -16 52 -36 22 -20 42 -34 46 -31 3 3 5 1 5 -5 0
-6 25 -27 55 -47 29 -20 71 -52 91 -71 20 -19 40 -33 44 -30 4 3 13 -2 20 -10
7 -8 18 -15 25 -15 8 0 15 -5 17 -11 6 -18 268 -159 296 -159 7 0 12 -4 12
-10 0 -5 5 -10 11 -10 5 0 38 -14 72 -31 34 -17 109 -47 167 -66 71 -24 116
-46 138 -66 17 -17 32 -28 32 -25 0 3 -13 35 -28 70 -34 74 -77 207 -73 226 1
8 -2 19 -8 25 -5 7 -12 28 -14 47 -3 19 -6 35 -7 35 -1 0 -3 11 -5 25 -8 65
-26 163 -30 170 -3 5 1 11 7 14 10 3 9 8 -4 15 -27 18 -11 47 27 49 26 2 35
-2 40 -18 3 -11 10 -20 15 -20 5 0 16 -12 24 -27 8 -16 15 -25 16 -20 0 14 70
-56 70 -70 0 -8 4 -12 8 -9 4 3 36 -24 70 -58 34 -35 74 -71 89 -81 15 -10 38
-31 51 -46 13 -16 30 -29 38 -29 8 0 14 -4 14 -8 0 -5 26 -26 57 -48 104 -71
146 -115 293 -309 98 -129 190 -294 190 -340 0 -11 4 -26 8 -33 7 -11 23 22
37 78 1 3 11 37 23 75 45 147 83 324 92 430 20 220 24 227 77 153 27 -38 149
-306 168 -367 17 -56 22 15 16 244 -6 224 0 309 22 331 4 4 7 18 7 31 0 13 7
40 17 61 9 20 15 40 15 45 -1 4 2 7 8 7 5 0 10 -4 10 -9 0 -5 10 -11 23 -15
15 -3 31 -24 49 -63 15 -32 38 -76 50 -98 25 -44 69 -171 87 -250 21 -94 56
-421 64 -600 l2 -49 127 129 c144 148 244 265 294 345 20 30 51 80 70 110 42
67 97 119 124 117 23 -1 34 -28 51 -121 23 -132 -4 -323 -59 -416 -37 -64 185
195 258 299 27 39 60 96 66 114 4 9 10 17 15 17 5 0 9 5 9 11 0 17 36 59 44
51 4 -3 4 1 1 9 -4 11 3 22 21 34 35 23 47 6 39 -55 -6 -54 -36 -98 -121 -181
-75 -73 -164 -194 -164 -222 0 -10 3 -17 8 -15 21 9 243 253 279 307 51 76 60
117 44 191 -23 100 -25 146 -7 171 9 13 16 33 16 45 0 12 7 27 15 34 8 7 15
20 15 29 0 9 7 25 15 35 8 11 15 28 15 38 0 10 4 18 9 18 4 0 16 21 26 48 32
85 65 133 89 130 11 -2 21 -10 21 -18 0 -8 8 -18 18 -22 10 -4 17 -18 17 -32
0 -14 4 -27 9 -31 59 -36 184 -557 160 -663 -17 -75 -141 -304 -240 -442 -51
-72 -163 -257 -205 -341 -39 -78 -110 -160 -157 -183 -80 -37 -221 -66 -352
-71 -89 -3 -132 -9 -137 -17 -4 -7 -26 -65 -48 -128 -44 -125 -125 -341 -173
-460 -90 -227 -243 -471 -407 -652 -157 -172 -329 -345 -445 -446 -150 -133
-190 -172 -177 -172 7 0 12 4 12 8 0 14 78 53 84 43 4 -5 2 -20 -3 -33 -5 -13
-12 -68 -16 -123 -3 -55 -8 -116 -10 -135 -3 -19 -7 -102 -10 -185 -6 -167
-24 -582 -29 -690 -6 -105 25 -909 35 -920 5 -5 9 20 10 60 0 39 4 89 7 111
l7 42 59 -53 c47 -42 59 -59 59 -82 -1 -35 -61 -463 -72 -518 -5 -22 -14 -67
-21 -100 -6 -33 -19 -68 -28 -78 -30 -34 -157 -79 -342 -122 -41 -10 -100 -26
-132 -36 -68 -23 -187 -44 -328 -59 -164 -17 -173 -21 -318 -143 -50 -42 -97
-77 -102 -77 -12 0 -13 23 -1 35 16 18 71 179 63 187 -9 9 -19 -11 -90 -162
-27 -58 -59 -114 -70 -124 -51 -45 -9 -48 65 -6 28 16 77 53 110 83 139 126
186 151 323 167 123 15 304 49 355 67 22 8 106 32 186 53 81 21 173 48 205 60
32 11 62 20 67 20 18 0 -15 -118 -98 -345 -26 -72 -57 -161 -70 -200 -13 -38
-44 -122 -68 -185 -69 -177 -71 -160 14 -160 62 0 70 2 59 15 -6 8 -17 13 -23
12 -13 -2 -12 83 1 93 4 3 7 10 7 15 1 21 27 101 37 113 6 7 8 15 5 19 -4 3
-3 11 2 17 11 14 68 192 116 361 21 72 41 135 45 140 20 27 78 264 101 415 5
36 21 155 35 265 13 110 29 216 34 235 5 19 16 105 25 190 34 333 44 410 59
462 9 29 32 107 51 173 20 66 41 137 47 157 17 58 -4 115 -73 197 -32 38 -68
72 -79 76 -11 3 -20 10 -20 15 0 5 -13 11 -30 15 -16 4 -30 13 -30 21 0 8 -4
14 -10 14 -5 0 -10 7 -10 15 0 18 -12 19 -29 3 -10 -11 -12 -9 -9 6 2 14 -3
19 -19 21 -17 1 -23 -4 -24 -19 0 -12 -7 6 -16 39 -22 89 -4 205 32 205 6 0
49 18 96 41 109 53 195 79 275 84 101 6 117 -2 293 -134 40 -31 92 -69 115
-85 94 -67 265 -204 326 -260 36 -34 88 -81 115 -106 159 -142 355 -336 364
-359 23 -60 32 -147 36 -341 4 -218 -19 -545 -49 -697 -8 -43 -22 -127 -31
-188 -21 -145 -29 -177 -72 -303 -38 -110 -186 -415 -242 -497 -17 -25 -31
-54 -31 -64 0 -10 -9 -21 -20 -24 -13 -3 -18 -11 -14 -20 3 -9 -5 -23 -20 -34
-14 -11 -22 -24 -18 -27 4 -4 -1 -14 -11 -21 -10 -7 -18 -16 -18 -19 1 -12
-41 -76 -51 -76 -5 0 -6 -4 -3 -10 3 -5 2 -10 -4 -10 -6 0 -8 -6 -5 -14 3 -9
-3 -17 -15 -21 -12 -3 -20 -9 -17 -13 2 -4 -9 -20 -25 -37 -19 -20 -29 -25
-29 -15 -1 12 -4 11 -14 -3 -8 -10 -18 -18 -22 -17 -5 1 -10 -3 -12 -9 -3 -8
652 -11 2267 -11 l2271 0 0 4274 0 4275 -22 7 c-12 4 -50 25 -84 48 -67 44
-84 73 -84 142 0 70 97 423 123 447 6 7 24 18 40 26 21 11 27 21 27 49 0 32
-1 34 -27 27 -16 -4 -53 -11 -83 -15 -30 -5 -163 -25 -295 -44 -132 -20 -283
-39 -335 -42 -52 -2 -162 -8 -245 -13 -201 -11 -514 -6 -548 10 -14 6 -28 19
-30 28 -4 14 -5 13 -6 -1 -1 -19 -41 -26 -41 -8 0 5 -7 7 -15 4 -8 -4 -15 -1
-15 6 0 7 -7 10 -15 6 -8 -3 -15 -2 -15 2 0 4 -10 8 -22 9 -11 1 -24 7 -28 14
-4 6 -10 7 -13 2 -3 -5 -23 -10 -45 -11 -29 -2 -41 2 -46 14 -5 12 -16 15 -46
12 -22 -2 -42 1 -44 7 -2 5 -5 4 -5 -2 -1 -7 -6 -13 -11 -13 -6 0 -10 8 -8 18
3 14 -5 17 -49 16 -49 -2 -53 0 -53 22 0 13 -5 24 -11 24 -6 0 -9 -9 -6 -20 3
-11 1 -23 -4 -26 -5 -3 -9 8 -9 24 0 17 6 32 15 36 10 3 15 19 15 46 0 56 18
50 23 -7 l3 -48 2 50 c2 30 6 45 10 37 18 -27 42 -1 43 47 l1 46 11 -45 11
-45 7 45 6 45 3 -40 3 -40 7 35 c6 31 8 32 9 8 2 -41 21 -45 21 -4 0 36 13 48
24 24 3 -7 4 -1 2 15 -2 15 1 30 5 33 5 3 9 -4 9 -15 0 -12 2 -21 5 -21 8 0
65 62 65 71 0 4 -17 9 -37 11 -20 2 -38 9 -39 16 -1 7 0 8 3 2 2 -5 22 -10 44
-10 38 0 39 -1 41 -37 1 -37 1 -37 5 -5 5 37 20 43 26 10 4 -22 4 -22 6 2 l2
25 14 -25 14 -25 1 23 c0 14 4 20 10 17 6 -4 22 1 36 10 14 9 32 14 40 11 9
-3 14 1 14 12 1 13 4 11 15 -8 14 -25 14 -24 15 20 0 51 16 44 23 -10 4 -33 4
-32 7 10 l3 45 7 -45 7 -45 2 45 c2 42 3 44 16 26 14 -19 15 -19 15 -1 0 18 1
18 13 1 12 -16 14 -14 25 21 6 21 13 47 16 58 2 12 4 6 5 -12 1 -41 21 -44 21
-3 0 41 20 38 21 -2 l2 -33 7 35 7 35 5 -35 5 -35 1 34 c2 33 3 34 17 15 12
-16 14 -17 15 -2 0 9 11 25 25 36 14 11 25 26 25 33 0 8 6 5 15 -7 14 -18 14
-18 15 11 l1 30 11 -25 c10 -24 10 -24 18 -5 7 19 8 18 12 -5 5 -23 5 -23 7 5
l2 30 11 -25 11 -25 5 25 4 24 14 -24 13 -25 1 23 c0 13 4 21 8 18 5 -3 21 2
37 10 16 8 35 12 42 10 9 -4 13 5 14 27 2 27 2 28 6 7 8 -41 23 -48 23 -10 0
38 15 31 23 -10 4 -21 4 -20 6 7 1 25 5 31 17 26 9 -3 27 6 45 23 l29 28 0
-30 0 -29 20 33 c11 17 24 32 28 32 5 0 14 10 20 23 10 21 11 21 13 -8 l1 -30
8 30 c6 23 8 25 9 8 2 -31 21 -39 21 -9 0 32 17 34 23 4 4 -22 4 -23 6 -1 1
15 6 20 19 16 10 -2 24 3 31 11 8 9 22 16 32 16 12 0 19 9 22 28 l4 27 2 -27
c2 -38 21 -36 21 2 0 35 17 40 23 8 4 -22 4 -22 6 2 1 18 4 21 10 11 6 -9 18
-11 35 -7 15 4 24 10 22 15 -3 5 1 14 9 21 13 10 15 9 15 -10 0 -37 34 -20 41
20 l5 35 11 -35 11 -35 1 33 c1 17 6 32 11 32 6 0 12 0 15 0 3 0 4 -3 3 -7 -2
-5 -6 -7 -10 -6 -5 2 -8 -3 -8 -10 0 -7 9 -13 20 -13 15 0 20 7 20 28 0 15 4
28 9 28 5 0 12 10 16 23 5 16 8 18 11 7 6 -22 91 -14 97 8 4 15 5 15 6 0 2
-31 21 -19 21 12 0 17 5 30 11 30 6 0 9 -6 6 -12 -2 -7 -1 -22 4 -33 6 -16 8
-14 8 13 1 19 5 31 11 27 6 -3 10 -2 10 4 0 11 19 9 39 -3 9 -6 12 -5 7 2 -3
6 2 13 11 15 14 4 13 5 -4 6 -25 1 -32 21 -8 21 8 0 25 6 36 13 17 10 23 10
26 0 3 -7 13 -13 24 -13 18 0 19 43 19 2060 l0 2060 -7200 0 -7200 0 0 -7200z
m14317 3128 c-3 -8 -6 -5 -6 6 -1 11 2 17 5 13 3 -3 4 -12 1 -19z m-4 -25 c-7
-2 -21 -2 -30 0 -10 3 -4 5 12 5 17 0 24 -2 18 -5z m-393 -153 c0 -5 -5 -10
-11 -10 -5 0 -7 5 -4 10 3 6 8 10 11 10 2 0 4 -4 4 -10z m-163 -16 c-3 -3 -12
-4 -19 -1 -8 3 -5 6 6 6 11 1 17 -2 13 -5z m180 -41 c-3 -10 -5 -4 -5 12 0 17
2 24 5 18 2 -7 2 -21 0 -30z m-497 -93 c0 -5 -5 -10 -11 -10 -5 0 -7 5 -4 10
3 6 8 10 11 10 2 0 4 -4 4 -10z m-87 -37 c-7 -2 -19 -2 -25 0 -7 3 -2 5 12 5
14 0 19 -2 13 -5z m-73 -68 c0 -8 -7 -15 -15 -15 -16 0 -20 12 -8 23 11 12 23
8 23 -8z m-323 -117 c-3 -7 -5 -2 -5 12 0 14 2 19 5 13 2 -7 2 -19 0 -25z
m-167 -78 c0 -5 -4 -10 -10 -10 -5 0 -10 5 -10 10 0 6 5 10 10 10 6 0 10 -4
10 -10z m-70 -30 c0 -5 -7 -10 -15 -10 -8 0 -15 5 -15 10 0 6 7 10 15 10 8 0
15 -4 15 -10z m-303 -217 c-3 -10 -5 -2 -5 17 0 19 2 27 5 18 2 -10 2 -26 0
-35z m-80 -75 c-2 -13 -4 -3 -4 22 0 25 2 35 4 23 2 -13 2 -33 0 -45z m-77
-22 c0 -11 -19 -15 -25 -6 -3 5 1 10 9 10 9 0 16 -2 16 -4z m60 -16 c0 -11 -4
-20 -9 -20 -14 0 -23 18 -16 30 10 17 25 11 25 -10z m1820 -173 c0 -7 9 -13
19 -14 21 -2 61 -37 61 -54 0 -5 -5 -7 -10 -4 -7 4 -9 -2 -5 -18 4 -14 2 -28
-4 -31 -6 -4 -13 -29 -17 -56 -4 -28 -10 -50 -14 -50 -4 0 -7 -12 -7 -26 0
-34 -61 -97 -87 -90 -11 3 -46 -1 -78 -9 -33 -7 -68 -12 -79 -10 -10 2 -19 0
-19 -6 0 -5 -7 -9 -15 -9 -8 0 -15 -7 -15 -16 0 -10 -6 -14 -15 -10 -9 3 -15
0 -15 -9 0 -8 -7 -18 -16 -23 -8 -5 -17 -15 -18 -23 -5 -23 -19 -54 -27 -59
-5 -3 -10 -26 -13 -51 -2 -25 -11 -63 -20 -84 -9 -21 -14 -46 -10 -57 3 -10 1
-18 -5 -18 -6 0 -11 -10 -11 -22 0 -13 -9 -38 -20 -56 -11 -18 -18 -37 -15
-42 6 -9 -46 -50 -64 -50 -27 0 -112 -53 -183 -114 -80 -69 -123 -129 -134
-187 -4 -19 -19 -74 -35 -124 -15 -49 -35 -128 -44 -174 -16 -87 -19 -119 -60
-591 -36 -415 -68 -681 -103 -870 -10 -53 -16 -153 -18 -268 l-2 -184 -36 -51
c-20 -29 -62 -79 -93 -112 -81 -85 -156 -173 -172 -203 -28 -52 -46 -410 -27
-547 8 -58 7 -61 -21 -86 -15 -15 -58 -47 -96 -73 -61 -41 -120 -85 -275 -206
-29 -23 -55 -40 -58 -37 -2 2 2 44 11 93 19 116 45 352 52 484 4 73 1 134 -10
200 -9 52 -19 131 -22 175 -11 146 -36 319 -60 415 -13 52 -29 127 -36 165 -8
45 -40 135 -89 250 -43 99 -81 191 -85 204 -4 13 -27 65 -51 115 -49 102 -50
112 -29 235 8 47 24 156 35 241 11 85 29 211 40 280 10 69 22 157 25 195 4 39
18 122 32 185 14 63 29 142 34 175 31 203 39 265 39 308 0 27 3 46 8 44 4 -3
9 43 11 101 1 59 6 109 10 112 14 9 19 37 11 51 -5 7 -5 18 -1 24 5 5 11 35
14 65 14 123 20 160 28 160 4 0 10 -10 12 -22 2 -13 5 10 6 51 1 61 4 72 16
67 12 -4 15 5 15 54 0 33 4 60 10 60 6 0 11 -6 11 -12 1 -7 5 1 9 17 6 24 8
17 10 -35 2 -36 5 -55 7 -43 3 14 9 20 19 16 12 -4 14 0 9 20 -5 19 -2 28 13
36 29 15 30 14 35 -16 2 -16 5 -3 6 27 2 47 4 52 12 30 6 -13 8 -34 5 -45 -3
-12 -1 -34 3 -50 9 -27 9 -26 11 20 1 28 4 44 7 38 10 -26 23 -12 23 25 0 27
3 33 10 22 5 -8 10 -11 10 -6 0 5 7 3 15 -4 13 -11 15 -8 15 14 0 29 20 37 21
9 0 -15 2 -15 9 2 l9 20 0 -20 c1 -13 4 -16 9 -8 12 19 63 28 73 12 6 -10 9
-3 9 20 0 33 1 34 15 15 8 -10 15 -14 15 -7 0 6 9 11 20 10 14 -1 20 -9 21
-27 l1 -25 10 28 c5 15 15 26 22 24 6 -2 19 0 29 5 10 5 17 5 17 0 0 -5 10 -8
23 -7 12 1 30 3 39 4 9 0 18 7 21 14 2 6 3 4 2 -5 -4 -25 16 -22 22 3 5 16 12
20 34 17 15 -3 26 -1 23 4 -3 4 22 8 56 7 33 -1 64 1 67 5 3 3 -9 6 -27 6 -18
0 -30 3 -27 6 3 4 96 7 207 8 156 1 199 -2 195 -11 -2 -7 0 -13 5 -13 6 0 10
6 10 13 0 8 9 13 23 12 12 -2 21 -8 20 -14 -2 -6 2 -11 7 -11 6 0 10 8 11 18
0 15 1 15 8 -2 5 -14 10 -16 15 -7 4 6 24 11 44 10 20 0 62 4 92 11 72 15 170
18 170 5 0 -5 4 -4 9 4 5 7 14 10 20 7 6 -4 11 -3 11 2 0 6 21 12 48 15 48 5
65 9 94 21 9 4 27 6 40 3 21 -4 20 -4 -4 -6 -20 -1 -28 -6 -27 -18 0 -11 3
-13 6 -5 2 6 13 12 23 12 10 0 21 4 25 10 3 5 12 7 20 3 8 -3 15 0 15 6 0 6 5
11 10 11 6 0 10 -6 10 -13z m-1132 -74 c-10 -2 -28 -2 -40 0 -13 2 -5 4 17 4
22 1 32 -1 23 -4z m-368 -63 c0 -5 -2 -10 -4 -10 -3 0 -8 5 -11 10 -3 6 -1 10
4 10 6 0 11 -4 11 -10z m-403 -292 c-3 -8 -6 -5 -6 6 -1 11 2 17 5 13 3 -3 4
-12 1 -19z m-7124 -1077 c33 -13 60 -57 53 -87 -8 -29 -72 -74 -106 -74 -14 0
-40 9 -57 20 -48 29 -46 76 2 119 37 32 66 38 108 22z m-201 -26 c14 3 18 -3
18 -28 1 -63 37 -205 65 -253 16 -27 53 -75 83 -106 66 -69 63 -71 -75 -66
-139 6 -246 37 -308 91 -63 54 -98 111 -93 148 3 16 0 30 -5 32 -12 4 75 109
127 155 20 18 41 30 47 27 5 -3 16 -2 25 3 9 5 35 6 57 1 23 -4 49 -6 59 -4z
m665 -226 c17 -15 17 -44 -2 -59 -24 -20 -96 45 -79 72 7 12 61 3 81 -13z
m-289 -87 c18 -2 53 1 78 7 26 7 49 9 53 6 3 -4 -9 -20 -28 -37 -29 -26 -40
-30 -76 -26 -24 3 -54 14 -68 24 -30 22 -37 51 -9 39 9 -5 32 -10 50 -13z
m-1131 -464 c-3 -8 -6 -5 -6 6 -1 11 2 17 5 13 3 -3 4 -12 1 -19z m-846 -376
c0 -12 2 -13 6 -3 5 11 7 11 14 0 8 -12 11 -11 19 1 7 11 10 3 10 -30 1 -42 2
-44 15 -26 14 19 15 19 50 1 19 -11 30 -22 24 -26 -8 -4 -7 -9 1 -14 7 -4 16
-1 21 6 8 12 11 12 19 -1 5 -8 10 -21 10 -29 0 -11 3 -11 15 -1 12 10 19 7 38
-14 13 -14 29 -26 36 -26 6 0 11 -7 11 -16 0 -9 6 -14 13 -11 6 2 11 12 11 21
-1 9 3 15 10 13 6 -2 11 -9 11 -15 0 -17 63 -54 70 -42 9 15 25 12 25 -5 0 -8
6 -15 13 -16 8 0 8 -2 -2 -6 -8 -3 -9 -8 -3 -12 5 -3 11 -22 13 -41 2 -19 7
-38 12 -41 5 -3 11 -40 14 -81 l6 -76 -32 4 c-30 4 -43 -9 -18 -19 7 -3 5 -6
-5 -6 -10 -1 -18 3 -18 9 0 5 -18 13 -39 16 -22 4 -42 13 -45 20 -6 15 -31 19
-39 7 -2 -5 -2 -2 0 6 2 8 -2 11 -12 7 -10 -4 -19 2 -25 17 -5 12 -9 16 -9 10
-1 -7 -8 -13 -17 -13 -11 0 -14 5 -10 17 4 10 4 14 0 10 -10 -9 -45 23 -38 34
3 5 -7 9 -21 9 -19 0 -29 6 -32 20 -5 19 -6 20 -19 3 -12 -17 -13 -16 -14 8 0
14 -3 29 -7 33 -5 4 -9 12 -9 17 -1 5 -3 12 -4 17 -2 4 -4 21 -4 37 -1 23 -7
31 -24 33 -16 2 -22 8 -18 18 3 9 -1 14 -14 14 -21 0 -28 20 -7 20 7 1 5 6 -5
14 -10 7 -18 18 -18 25 0 6 8 12 18 12 16 1 16 2 0 6 -10 2 -18 11 -18 19 0 8
-4 12 -10 9 -5 -3 -10 1 -10 10 0 9 5 13 11 9 7 -4 7 1 -1 16 -8 15 -8 20 -1
16 7 -5 11 1 11 14 0 25 20 17 21 -8z m466 -279 c-3 -10 -5 -2 -5 17 0 19 2
27 5 18 2 -10 2 -26 0 -35z m118 17 c3 -5 1 -10 -4 -10 -6 0 -11 5 -11 10 0 6
2 10 4 10 3 0 8 -4 11 -10z m-432 -117 c-7 -2 -21 -2 -30 0 -10 3 -4 5 12 5
17 0 24 -2 18 -5z m7 -235 c0 -16 -4 -28 -10 -28 -5 0 -10 19 -10 43 0 31 3
38 10 27 5 -8 10 -27 10 -42z m27 12 c4 -11 8 -8 13 10 5 16 8 19 9 8 1 -10 9
-19 19 -20 9 0 30 -2 45 -3 16 -1 32 -7 35 -12 4 -6 36 -12 72 -14 36 -2 67
-7 70 -11 4 -4 23 -9 43 -10 21 -2 37 -8 37 -15 0 -7 6 -13 14 -13 30 0 104
-94 97 -124 -1 -5 4 -13 10 -17 7 -4 14 -22 15 -40 1 -19 7 -35 13 -37 6 -2
11 -13 11 -24 0 -18 -2 -19 -17 -7 -15 13 -16 12 -11 -8 5 -17 2 -23 -10 -24
-34 -2 -67 3 -76 12 -14 13 -46 11 -46 -3 0 -10 -2 -10 -8 -1 -4 6 -20 15 -35
18 -15 4 -27 10 -27 14 0 4 -17 7 -37 8 -21 0 -39 6 -41 12 -2 6 -13 11 -25
11 -17 0 -19 2 -8 9 10 7 5 11 -18 16 -18 4 -31 13 -31 21 0 9 -4 12 -10 9 -5
-3 -10 3 -10 14 0 13 -7 21 -16 21 -9 0 -18 9 -21 20 -3 11 -9 20 -14 20 -5 0
-9 10 -9 23 0 18 -2 19 -10 7 -8 -12 -10 -9 -10 13 0 16 -5 27 -14 27 -19 0
-22 10 -17 77 2 32 6 51 8 43 3 -8 7 -22 10 -30z m178 -10 c3 -5 -1 -10 -9
-10 -8 0 -18 5 -21 10 -3 6 1 10 9 10 8 0 18 -4 21 -10z m-1334 -833 c10 3 25
0 33 -6 11 -9 15 -9 19 1 4 10 8 10 14 1 5 -6 15 -11 23 -11 64 4 63 5 57 -84
-5 -67 -26 -153 -44 -177 -1 -2 -22 14 -46 36 -24 22 -76 59 -115 82 -40 23
-72 48 -72 57 0 8 15 23 33 34 17 11 26 20 20 20 -7 0 -13 10 -13 23 1 21 1
22 15 3 13 -17 15 -17 15 -3 0 17 33 41 38 27 2 -4 12 -6 23 -3z m9249 -101
c1 12 27 -60 41 -111 38 -143 77 -394 85 -540 10 -197 -38 -483 -103 -607 -14
-27 -23 -51 -20 -54 3 -3 11 4 17 16 6 12 53 69 103 126 51 58 107 125 125
147 36 46 68 78 60 62 -71 -151 -190 -384 -201 -393 -8 -7 -52 -17 -98 -22
-119 -15 -191 -30 -216 -46 -12 -7 -52 -59 -89 -116 -62 -94 -68 -100 -80 -83
-23 30 -34 81 -54 226 -12 93 -15 152 -9 185 4 27 13 81 19 119 6 39 22 104
35 145 14 41 36 109 49 150 13 41 50 147 81 235 31 88 61 176 67 195 5 19 14
40 18 45 4 6 15 35 25 65 35 112 80 226 99 253 19 26 21 27 33 11 7 -10 13
-14 13 -8z m590 -214 c32 -120 39 -201 24 -290 -8 -50 -21 -96 -31 -109 -10
-12 -58 -70 -108 -130 -49 -60 -102 -125 -117 -143 -32 -40 -29 -27 17 75 72
160 121 320 171 553 9 45 21 82 25 82 5 0 13 -17 19 -38z m-8830 -634 c0 7 5
12 11 12 13 0 39 -25 39 -38 0 -5 14 -21 32 -36 17 -14 27 -26 21 -26 -6 0 -3
-10 7 -22 65 -77 90 -112 90 -124 0 -8 9 -22 20 -31 11 -10 20 -22 20 -29 0
-6 9 -19 20 -29 11 -10 20 -24 20 -31 0 -7 7 -20 16 -28 8 -9 42 -68 76 -132
52 -101 62 -132 79 -228 12 -65 21 -165 22 -241 l2 -130 -61 -30 c-161 -79
-263 -118 -279 -105 -7 6 -23 39 -36 73 -49 136 -98 228 -143 271 -35 34 -49
59 -66 112 -23 74 -41 240 -34 314 2 25 6 81 9 125 2 44 6 91 8 105 3 14 8 44
11 67 7 41 24 93 48 140 6 12 17 19 24 16 8 -3 14 0 14 6 0 6 -8 11 -17 11
-16 1 -16 2 2 16 18 13 21 13 32 -3 7 -9 13 -11 13 -5z m-614 -104 c33 -36 65
-71 72 -79 6 -7 12 -17 12 -22 0 -4 13 -21 28 -38 16 -16 35 -43 44 -60 55
-108 70 -142 107 -247 23 -64 41 -123 41 -132 0 -21 -23 -11 -93 42 -116 88
-193 231 -252 467 -14 55 -28 108 -31 118 -10 33 13 17 72 -49z m7914 -605 c0
-7 8 -19 18 -28 49 -45 85 -188 80 -317 l-3 -79 -115 3 c-63 2 -117 6 -119 8
-2 2 3 37 12 77 9 39 23 108 32 152 9 44 24 106 33 138 14 48 20 57 39 57 13
0 23 -5 23 -11z m398 -204 c60 -65 72 -83 72 -112 0 -34 -48 -163 -74 -199
-16 -21 -34 -17 -150 34 l-58 26 5 50 c12 102 38 220 51 235 7 9 16 24 19 33
4 11 15 15 34 13 20 -2 49 -25 101 -80z m-6134 54 c34 -6 78 -15 99 -20 69
-17 122 -31 137 -37 8 -3 17 -6 20 -7 111 -33 110 -31 118 -209 l5 -129 -48
27 c-70 38 -107 37 -151 -5 -40 -38 -63 -85 -70 -144 -3 -22 -16 -107 -29
-190 -14 -82 -27 -184 -31 -225 -3 -41 -8 -78 -11 -83 -2 -4 -8 -37 -13 -75
-4 -37 -13 -85 -19 -107 -6 -25 -6 -42 0 -46 6 -3 4 -17 -6 -35 -8 -16 -15
-39 -15 -51 0 -30 -10 -54 -21 -47 -5 3 -6 -2 -3 -10 4 -9 1 -16 -6 -16 -10 0
-9 -4 1 -16 10 -13 10 -17 0 -23 -7 -5 -14 -21 -14 -37 -1 -16 -6 -32 -12 -36
-7 -5 -7 -11 0 -15 6 -5 11 -44 11 -88 2 -118 3 -125 15 -125 6 0 9 -8 8 -17
-3 -38 2 -53 17 -53 10 0 14 -5 10 -15 -3 -9 2 -34 10 -56 10 -23 14 -52 11
-69 -5 -23 -2 -33 15 -45 17 -11 20 -17 10 -27 -17 -17 -16 -44 1 -30 11 9 13
3 12 -33 -2 -32 2 -46 14 -50 14 -6 14 -8 -3 -21 -20 -14 -20 -14 0 -14 17 0
20 -5 17 -33 -3 -22 -2 -28 5 -18 7 10 11 3 14 -25 3 -22 1 -43 -3 -48 -6 -6
-9 -4 -10 5 0 9 -4 6 -9 -6 -13 -31 -11 -43 8 -48 9 -3 0 -5 -20 -6 -21 0 -38
-6 -38 -12 0 -6 7 -8 16 -5 9 3 31 6 50 6 37 0 47 19 14 27 -25 7 -26 19 -1
26 16 4 21 -2 26 -34 4 -21 4 -48 0 -60 -5 -14 -2 -25 6 -30 10 -6 8 -9 -8 -9
-14 0 -23 6 -23 15 0 10 -10 15 -30 15 -43 0 -37 18 8 23 20 2 -1 2 -48 0 -69
-2 -81 -1 -62 8 26 14 27 19 7 45 -14 19 -14 18 -15 -3 0 -13 -5 -23 -11 -23
-5 0 -7 5 -4 10 3 6 1 10 -6 10 -7 0 -20 7 -29 15 -12 10 -40 17 -81 18 l-64
1 40 12 40 12 -50 2 c-38 1 -45 4 -30 10 11 5 14 9 8 9 -7 1 -13 9 -13 20 0
19 -10 22 -97 38 -19 3 -33 11 -33 19 0 8 -6 14 -14 14 -8 0 -16 6 -19 14 -5
11 -19 13 -61 9 -39 -4 -56 -2 -56 6 0 6 17 11 40 11 22 0 40 5 40 11 0 6 -18
10 -42 9 -63 -3 -82 -1 -75 7 14 13 -25 43 -48 37 -13 -3 -26 -1 -29 5 -4 6 0
11 9 11 9 0 13 5 9 11 -4 7 -21 9 -40 6 -19 -3 -34 -2 -34 4 0 5 -7 9 -15 9
-8 0 -15 4 -15 9 0 5 -7 26 -16 47 -15 34 -18 37 -25 19 -6 -17 -8 -17 -8 -2
-1 12 -9 17 -31 17 -21 0 -30 5 -30 16 0 8 -4 12 -10 9 -5 -3 -10 -1 -10 4 0
6 5 11 10 11 6 0 10 10 10 23 0 18 -2 19 -10 7 -6 -10 -10 -11 -10 -2 0 7 -13
12 -30 12 -20 0 -30 5 -30 15 0 8 -5 14 -12 13 -7 -2 -12 2 -13 9 0 7 -6 18
-12 25 -7 6 -13 18 -13 25 0 12 -20 18 -44 14 -5 -1 -6 5 -3 13 4 9 2 18 -3
21 -6 4 -10 -1 -10 -9 0 -9 -4 -16 -10 -16 -5 0 -10 14 -10 30 0 20 -5 30 -15
30 -8 0 -15 8 -15 18 0 11 -10 24 -22 30 -13 6 -17 11 -10 11 7 1 10 6 7 11
-4 6 -11 8 -16 5 -5 -4 -9 6 -9 20 0 17 -5 25 -12 22 -16 -5 -37 21 -38 46 0
9 -7 17 -15 17 -10 0 -17 14 -21 40 -4 22 -10 40 -14 40 -4 0 -13 15 -21 33
-7 17 -21 43 -31 56 -10 13 -15 27 -12 32 3 5 -2 12 -10 15 -11 4 -16 19 -16
44 0 22 -4 42 -10 45 -5 3 -10 15 -10 25 0 10 -6 23 -12 27 -14 8 -36 60 -46
103 -3 14 -8 27 -12 30 -7 6 -31 98 -31 122 0 10 -4 20 -9 23 -4 3 -6 14 -3
25 3 11 0 20 -5 20 -6 0 -14 23 -18 50 -4 28 -11 53 -15 56 -5 3 -9 25 -9 49
0 24 -5 56 -11 72 -7 19 -7 29 0 31 6 2 11 11 11 19 0 27 72 92 141 128 75 38
285 120 401 156 42 13 74 27 72 31 -3 5 9 8 25 8 17 0 31 5 31 10 0 6 6 10 14
10 18 0 160 62 164 72 2 5 13 8 24 8 11 0 32 6 46 14 32 16 140 59 197 77 22
7 45 17 52 21 6 5 33 11 60 15 26 3 50 7 52 9 9 8 148 3 205 -7z m4035 -299
c-1 -27 -5 -50 -9 -50 -9 0 1 -69 11 -76 5 -3 8 -17 8 -32 -1 -27 -1 -27 -8 3
-4 17 -8 -26 -9 -103 -1 -74 -4 -138 -7 -143 -4 -5 -2 -16 3 -25 6 -10 5 -33
-1 -58 -5 -22 -9 -58 -8 -79 1 -20 -5 -47 -14 -60 -14 -20 -15 -11 -14 113 1
74 4 139 7 145 3 5 4 75 3 156 -2 118 1 153 13 177 9 17 16 42 16 57 0 14 2
25 5 25 3 0 5 -22 4 -50z m-17 -767 c-1 -60 -2 -134 -3 -165 0 -32 -3 -58 -7
-58 -14 0 -15 300 -2 316 7 8 13 14 14 14 0 0 0 -48 -2 -107z m-3699 -570 c-7
-2 -19 -2 -25 0 -7 3 -2 5 12 5 14 0 19 -2 13 -5z m-756 -575 c-3 -8 -6 -5 -6
6 -1 11 2 17 5 13 3 -3 4 -12 1 -19z m523 -228 c0 -5 -7 -10 -15 -10 -8 0 -15
5 -15 10 0 6 7 10 15 10 8 0 15 -4 15 -10z m117 -36 c-3 -3 -12 -4 -19 -1 -8
3 -5 6 6 6 11 1 17 -2 13 -5z m-84 -31 c-7 -2 -19 -2 -25 0 -7 3 -2 5 12 5 14
0 19 -2 13 -5z m64 1 c-3 -3 -12 -4 -19 -1 -8 3 -5 6 6 6 11 1 17 -2 13 -5z
m-60 -56 c-3 -7 -5 -2 -5 12 0 14 2 19 5 13 2 -7 2 -19 0 -25z"/>
<path d="M12562 8940 c0 -14 2 -19 5 -12 2 6 2 18 0 25 -3 6 -5 1 -5 -13z"/>
<path d="M12302 8870 c0 -19 2 -27 5 -17 2 9 2 25 0 35 -3 9 -5 1 -5 -18z"/>
<path d="M12222 8620 c0 -14 2 -19 5 -12 2 6 2 18 0 25 -3 6 -5 1 -5 -13z"/>
<path d="M3335 6450 c-3 -5 -1 -10 4 -10 6 0 11 5 11 10 0 6 -2 10 -4 10 -3 0
-8 -4 -11 -10z"/>
<path d="M4105 1310 c3 -5 8 -10 11 -10 2 0 4 5 4 10 0 6 -5 10 -11 10 -5 0
-7 -4 -4 -10z"/>
<path d="M4320 1198 c0 -9 23 -9 65 2 26 7 24 8 -17 7 -27 0 -48 -4 -48 -9z"/>
<path d="M4375 1180 c3 -5 10 -10 16 -10 5 0 9 5 9 10 0 6 -7 10 -16 10 -8 0
-12 -4 -9 -10z"/>
<path d="M4961 994 c0 -11 3 -14 6 -6 3 7 2 16 -1 19 -3 4 -6 -2 -5 -13z"/>
<path d="M4802 980 c0 -14 2 -19 5 -12 2 6 2 18 0 25 -3 6 -5 1 -5 -13z"/>
<path d="M14265 10200 c3 -5 12 -7 20 -3 21 7 19 13 -6 13 -11 0 -18 -4 -14
-10z"/>
<path d="M14055 10130 c-3 -5 -1 -11 5 -15 5 -3 10 -3 10 2 0 4 5 1 10 -7 8
-13 10 -13 10 1 0 19 -26 33 -35 19z"/>
<path d="M14025 10080 c-3 -5 -1 -10 4 -10 6 0 11 5 11 10 0 6 -2 10 -4 10 -3
0 -8 -4 -11 -10z"/>
<path d="M13928 10043 c7 -3 16 -2 19 1 4 3 -2 6 -13 5 -11 0 -14 -3 -6 -6z"/>
<path d="M13098 9735 c2 -14 6 -25 8 -25 2 0 4 11 4 25 0 14 -4 25 -9 25 -4 0
-6 -11 -3 -25z"/>
<path d="M12542 9460 c0 -14 2 -19 5 -12 2 6 2 18 0 25 -3 6 -5 1 -5 -13z"/>
<path d="M11050 6868 c-6 -18 -23 -55 -36 -83 -13 -27 -35 -81 -48 -120 -39
-114 -130 -314 -176 -390 -27 -43 -76 -67 -224 -109 -71 -21 -141 -43 -155
-51 -36 -18 -151 -128 -151 -144 0 -7 19 5 42 28 56 54 151 102 268 136 129
38 213 80 246 122 27 35 164 318 164 339 0 5 10 30 22 55 33 69 96 238 90 244
-14 13 -31 2 -42 -27z"/>
<path d="M8755 3559 c-58 -47 -81 -70 -45 -46 75 51 90 63 94 75 7 16 8 17
-49 -29z"/>
<path d="M8350 3265 c-8 -9 -8 -15 -2 -15 12 0 26 19 19 26 -2 2 -10 -2 -17
-11z"/>
<path d="M8200 3160 c-9 -6 -10 -10 -3 -10 6 0 15 5 18 10 8 12 4 12 -15 0z"/>
<path d="M7910 2959 c0 -5 5 -7 10 -4 6 3 10 8 10 11 0 2 -4 4 -10 4 -5 0 -10
-5 -10 -11z"/>
<path d="M7978 1373 c-14 -38 -32 -86 -39 -108 -6 -22 -36 -102 -65 -177 -54
-137 -62 -164 -45 -154 10 7 135 327 171 438 21 69 5 69 -22 1z"/>
<path d="M9840 19 c0 -5 -4 -7 -10 -4 -5 3 -10 1 -10 -4 0 -6 7 -11 15 -11 8
0 15 7 15 15 0 8 -2 15 -5 15 -3 0 -5 -5 -5 -11z"/>
</g>
</svg>
